<svg width="316" height="60" viewBox="0 0 316 60" fill="none" xmlns="http://www.w3.org/2000/svg">
<g filter="url(#filter0_d_96_5757)">
<path d="M0 16C0 7.16344 7.16344 0 16 0H296C304.837 0 312 7.16344 312 16V40C312 48.8366 304.837 56 296 56H16C7.16344 56 0 48.8366 0 40V16Z" fill="#4650BD" shape-rendering="crispEdges"/>
<path d="M44.7294 27.8C44.7294 26.9333 44.8827 26.0867 45.1894 25.26C45.5094 24.42 45.9694 23.66 46.5694 22.98C47.1694 22.2867 47.9027 21.74 48.7694 21.34C49.636 20.9267 50.6227 20.72 51.7294 20.72C53.036 20.72 54.1627 21.0067 55.1094 21.58C56.0694 22.1533 56.7827 22.9 57.2494 23.82L55.1294 25.28C54.8894 24.7467 54.576 24.3267 54.1894 24.02C53.8027 23.7 53.3894 23.48 52.9494 23.36C52.5094 23.2267 52.076 23.16 51.6494 23.16C50.956 23.16 50.3494 23.3 49.8294 23.58C49.3227 23.86 48.896 24.2267 48.5494 24.68C48.2027 25.1333 47.9427 25.64 47.7694 26.2C47.6094 26.76 47.5294 27.32 47.5294 27.88C47.5294 28.5067 47.6294 29.1133 47.8294 29.7C48.0294 30.2733 48.3094 30.7867 48.6694 31.24C49.0427 31.68 49.4827 32.0333 49.9894 32.3C50.5094 32.5533 51.076 32.68 51.6894 32.68C52.1294 32.68 52.576 32.6067 53.0294 32.46C53.4827 32.3133 53.9027 32.08 54.2894 31.76C54.676 31.44 54.976 31.0267 55.1894 30.52L57.4494 31.82C57.1694 32.5267 56.7094 33.1267 56.0694 33.62C55.4427 34.1133 54.736 34.4867 53.9494 34.74C53.1627 34.9933 52.3827 35.12 51.6094 35.12C50.596 35.12 49.6694 34.9133 48.8294 34.5C47.9894 34.0733 47.2627 33.5133 46.6494 32.82C46.0494 32.1133 45.576 31.3267 45.2294 30.46C44.896 29.58 44.7294 28.6933 44.7294 27.8ZM63.8413 35.2C62.9879 35.2 62.2213 35.06 61.5413 34.78C60.8613 34.4867 60.2813 34.0867 59.8013 33.58C59.3346 33.0733 58.9746 32.4933 58.7213 31.84C58.4679 31.1867 58.3413 30.5 58.3413 29.78C58.3413 29.0467 58.4679 28.3533 58.7213 27.7C58.9746 27.0467 59.3346 26.4667 59.8013 25.96C60.2813 25.4533 60.8613 25.06 61.5413 24.78C62.2213 24.4867 62.9879 24.34 63.8413 24.34C64.6946 24.34 65.4546 24.4867 66.1213 24.78C66.8013 25.06 67.3813 25.4533 67.8613 25.96C68.3413 26.4667 68.7013 27.0467 68.9413 27.7C69.1946 28.3533 69.3213 29.0467 69.3213 29.78C69.3213 30.5 69.1946 31.1867 68.9413 31.84C68.7013 32.4933 68.3413 33.0733 67.8613 33.58C67.3946 34.0867 66.8213 34.4867 66.1413 34.78C65.4613 35.06 64.6946 35.2 63.8413 35.2ZM61.1013 29.78C61.1013 30.3933 61.2213 30.94 61.4613 31.42C61.7013 31.8867 62.0279 32.2533 62.4413 32.52C62.8546 32.7867 63.3213 32.92 63.8413 32.92C64.3479 32.92 64.8079 32.7867 65.2213 32.52C65.6346 32.24 65.9613 31.8667 66.2013 31.4C66.4546 30.92 66.5813 30.3733 66.5813 29.76C66.5813 29.16 66.4546 28.62 66.2013 28.14C65.9613 27.66 65.6346 27.2867 65.2213 27.02C64.8079 26.7533 64.3479 26.62 63.8413 26.62C63.3213 26.62 62.8546 26.76 62.4413 27.04C62.0279 27.3067 61.7013 27.68 61.4613 28.16C61.2213 28.6267 61.1013 29.1667 61.1013 29.78ZM87.4102 35H84.7302V29.12C84.7302 28.2933 84.5835 27.6867 84.2902 27.3C84.0102 26.9 83.6168 26.7 83.1102 26.7C82.5902 26.7 82.0902 26.9067 81.6102 27.32C81.1435 27.72 80.8102 28.2467 80.6102 28.9V35H77.9302V29.12C77.9302 28.28 77.7835 27.6667 77.4902 27.28C77.2102 26.8933 76.8168 26.7 76.3102 26.7C75.7902 26.7 75.2902 26.9 74.8102 27.3C74.3435 27.7 74.0102 28.2267 73.8102 28.88V35H71.1302V24.52H73.5502V26.46C73.9502 25.78 74.4835 25.26 75.1502 24.9C75.8168 24.5267 76.5835 24.34 77.4502 24.34C78.3168 24.34 78.9902 24.5533 79.4702 24.98C79.9635 25.4067 80.2768 25.9333 80.4102 26.56C80.8368 25.84 81.3768 25.2933 82.0302 24.92C82.6968 24.5333 83.4435 24.34 84.2702 24.34C84.9235 24.34 85.4502 24.46 85.8502 24.7C86.2635 24.9267 86.5835 25.24 86.8102 25.64C87.0368 26.0267 87.1902 26.4667 87.2702 26.96C87.3635 27.4533 87.4102 27.9533 87.4102 28.46V35ZM96.0234 35.2C95.2101 35.2 94.4901 35.02 93.8634 34.66C93.2501 34.2867 92.7701 33.7867 92.4234 33.16V39.26H89.7434V24.52H92.0834V26.32C92.4834 25.7067 92.9901 25.2267 93.6034 24.88C94.2168 24.52 94.9168 24.34 95.7034 24.34C96.4101 24.34 97.0568 24.48 97.6434 24.76C98.2434 25.04 98.7634 25.4333 99.2034 25.94C99.6434 26.4333 99.9834 27.0067 100.223 27.66C100.477 28.3 100.603 28.9933 100.603 29.74C100.603 30.7533 100.403 31.6733 100.003 32.5C99.6168 33.3267 99.0768 33.9867 98.3834 34.48C97.7034 34.96 96.9168 35.2 96.0234 35.2ZM95.1234 32.92C95.5368 32.92 95.9101 32.8333 96.2434 32.66C96.5768 32.4867 96.8634 32.2533 97.1034 31.96C97.3568 31.6533 97.5434 31.3133 97.6634 30.94C97.7968 30.5533 97.8634 30.1533 97.8634 29.74C97.8634 29.3 97.7901 28.8933 97.6434 28.52C97.5101 28.1467 97.3101 27.82 97.0434 27.54C96.7768 27.2467 96.4634 27.02 96.1034 26.86C95.7568 26.7 95.3768 26.62 94.9634 26.62C94.7101 26.62 94.4501 26.6667 94.1834 26.76C93.9301 26.84 93.6834 26.96 93.4434 27.12C93.2034 27.28 92.9901 27.4667 92.8034 27.68C92.6301 27.8933 92.5034 28.1267 92.4234 28.38V30.84C92.5834 31.2267 92.7968 31.58 93.0634 31.9C93.3434 32.22 93.6634 32.4733 94.0234 32.66C94.3834 32.8333 94.7501 32.92 95.1234 32.92ZM108.659 26.84C107.846 26.84 107.119 27 106.479 27.32C105.839 27.6267 105.379 28.0733 105.099 28.66V35H102.419V24.52H104.879V26.76C105.253 26.04 105.726 25.4733 106.299 25.06C106.873 24.6467 107.479 24.42 108.119 24.38C108.266 24.38 108.379 24.38 108.459 24.38C108.539 24.38 108.606 24.3867 108.659 24.4V26.84ZM109.375 31.9C109.375 31.22 109.562 30.6267 109.935 30.12C110.322 29.6 110.855 29.2 111.535 28.92C112.215 28.64 112.995 28.5 113.875 28.5C114.315 28.5 114.762 28.5333 115.215 28.6C115.668 28.6667 116.062 28.7733 116.395 28.92V28.36C116.395 27.6933 116.195 27.18 115.795 26.82C115.408 26.46 114.828 26.28 114.055 26.28C113.482 26.28 112.935 26.38 112.415 26.58C111.895 26.78 111.348 27.0733 110.775 27.46L109.915 25.7C110.608 25.2467 111.315 24.9067 112.035 24.68C112.768 24.4533 113.535 24.34 114.335 24.34C115.828 24.34 116.988 24.7133 117.815 25.46C118.655 26.2067 119.075 27.2733 119.075 28.66V32C119.075 32.28 119.122 32.48 119.215 32.6C119.322 32.72 119.488 32.7933 119.715 32.82V35C119.475 35.04 119.255 35.0733 119.055 35.1C118.868 35.1267 118.708 35.14 118.575 35.14C118.042 35.14 117.635 35.02 117.355 34.78C117.088 34.54 116.922 34.2467 116.855 33.9L116.795 33.36C116.342 33.9467 115.775 34.4 115.095 34.72C114.415 35.04 113.722 35.2 113.015 35.2C112.322 35.2 111.695 35.06 111.135 34.78C110.588 34.4867 110.155 34.0933 109.835 33.6C109.528 33.0933 109.375 32.5267 109.375 31.9ZM115.895 32.44C116.042 32.28 116.162 32.12 116.255 31.96C116.348 31.8 116.395 31.6533 116.395 31.52V30.46C116.075 30.3267 115.728 30.2267 115.355 30.16C114.982 30.08 114.628 30.04 114.295 30.04C113.602 30.04 113.028 30.1933 112.575 30.5C112.135 30.7933 111.915 31.1867 111.915 31.68C111.915 31.9467 111.988 32.2 112.135 32.44C112.282 32.68 112.495 32.8733 112.775 33.02C113.055 33.1667 113.388 33.24 113.775 33.24C114.175 33.24 114.568 33.1667 114.955 33.02C115.342 32.86 115.655 32.6667 115.895 32.44ZM127.819 26.84C127.006 26.84 126.279 27 125.639 27.32C124.999 27.6267 124.539 28.0733 124.259 28.66V35H121.579V24.52H124.039V26.76C124.413 26.04 124.886 25.4733 125.459 25.06C126.033 24.6467 126.639 24.42 127.279 24.38C127.426 24.38 127.539 24.38 127.619 24.38C127.699 24.38 127.766 24.3867 127.819 24.4V26.84ZM133.669 35V24.52H136.349V35H133.669ZM133.669 23.06V20.4H136.349V23.06H133.669ZM148.507 35H145.827V29.12C145.827 28.28 145.68 27.6667 145.387 27.28C145.094 26.8933 144.687 26.7 144.167 26.7C143.807 26.7 143.44 26.7933 143.067 26.98C142.707 27.1667 142.38 27.4267 142.087 27.76C141.794 28.08 141.58 28.4533 141.447 28.88V35H138.767V24.52H141.187V26.46C141.454 26.0067 141.794 25.6267 142.207 25.32C142.62 25 143.094 24.76 143.627 24.6C144.174 24.4267 144.747 24.34 145.347 24.34C146 24.34 146.534 24.46 146.947 24.7C147.374 24.9267 147.694 25.24 147.907 25.64C148.134 26.0267 148.287 26.4667 148.367 26.96C148.46 27.4533 148.507 27.9533 148.507 28.46V35ZM154.937 35.06C154.244 35.06 153.604 34.9267 153.017 34.66C152.444 34.38 151.944 33.9933 151.517 33.5C151.104 33.0067 150.784 32.44 150.557 31.8C150.331 31.16 150.217 30.48 150.217 29.76C150.217 29 150.337 28.2933 150.577 27.64C150.817 26.9867 151.151 26.4133 151.577 25.92C152.017 25.4133 152.531 25.0267 153.117 24.76C153.717 24.48 154.377 24.34 155.097 24.34C155.911 24.34 156.624 24.5267 157.237 24.9C157.851 25.26 158.357 25.7467 158.757 26.36V24.52H161.097V34.5C161.097 35.54 160.844 36.4267 160.337 37.16C159.844 37.9067 159.157 38.4733 158.277 38.86C157.397 39.26 156.397 39.46 155.277 39.46C154.144 39.46 153.184 39.2667 152.397 38.88C151.611 38.5067 150.937 37.9733 150.377 37.28L151.837 35.86C152.237 36.3533 152.737 36.74 153.337 37.02C153.951 37.3 154.597 37.44 155.277 37.44C155.851 37.44 156.371 37.3333 156.837 37.12C157.317 36.92 157.697 36.6 157.977 36.16C158.271 35.7333 158.417 35.18 158.417 34.5V33.18C158.071 33.78 157.577 34.2467 156.937 34.58C156.311 34.9 155.644 35.06 154.937 35.06ZM155.837 32.92C156.131 32.92 156.411 32.8733 156.677 32.78C156.944 32.6867 157.191 32.56 157.417 32.4C157.644 32.24 157.844 32.0533 158.017 31.84C158.191 31.6133 158.324 31.3867 158.417 31.16V28.66C158.257 28.2467 158.031 27.8867 157.737 27.58C157.457 27.2733 157.137 27.04 156.777 26.88C156.431 26.7067 156.064 26.62 155.677 26.62C155.264 26.62 154.891 26.7067 154.557 26.88C154.224 27.0533 153.937 27.3 153.697 27.62C153.457 27.9267 153.271 28.2733 153.137 28.66C153.017 29.0333 152.957 29.4267 152.957 29.84C152.957 30.2667 153.031 30.6667 153.177 31.04C153.324 31.4133 153.524 31.74 153.777 32.02C154.044 32.3 154.351 32.52 154.697 32.68C155.057 32.84 155.437 32.92 155.837 32.92ZM169.753 26.84C168.94 26.84 168.213 27 167.573 27.32C166.933 27.6267 166.473 28.0733 166.193 28.66V35H163.513V24.52H165.973V26.76C166.346 26.04 166.82 25.4733 167.393 25.06C167.966 24.6467 168.573 24.42 169.213 24.38C169.36 24.38 169.473 24.38 169.553 24.38C169.633 24.38 169.7 24.3867 169.753 24.4V26.84ZM175.971 35.2C175.131 35.2 174.371 35.06 173.691 34.78C173.011 34.4867 172.431 34.0933 171.951 33.6C171.471 33.0933 171.097 32.52 170.831 31.88C170.577 31.2267 170.451 30.54 170.451 29.82C170.451 28.82 170.671 27.9067 171.111 27.08C171.564 26.2533 172.204 25.5933 173.031 25.1C173.871 24.5933 174.857 24.34 175.991 24.34C177.137 24.34 178.117 24.5933 178.931 25.1C179.744 25.5933 180.364 26.2533 180.791 27.08C181.231 27.8933 181.451 28.7733 181.451 29.72C181.451 29.88 181.444 30.0467 181.431 30.22C181.417 30.38 181.404 30.5133 181.391 30.62H173.291C173.344 31.1533 173.497 31.62 173.751 32.02C174.017 32.42 174.351 32.7267 174.751 32.94C175.164 33.14 175.604 33.24 176.071 33.24C176.604 33.24 177.104 33.1133 177.571 32.86C178.051 32.5933 178.377 32.2467 178.551 31.82L180.851 32.46C180.597 32.9933 180.231 33.4667 179.751 33.88C179.284 34.2933 178.731 34.62 178.091 34.86C177.451 35.0867 176.744 35.2 175.971 35.2ZM173.231 28.92H178.711C178.657 28.3867 178.504 27.9267 178.251 27.54C178.011 27.14 177.691 26.8333 177.291 26.62C176.891 26.3933 176.444 26.28 175.951 26.28C175.471 26.28 175.031 26.3933 174.631 26.62C174.244 26.8333 173.924 27.14 173.671 27.54C173.431 27.9267 173.284 28.3867 173.231 28.92ZM186.943 35.2C186.05 35.2 185.197 35.0533 184.383 34.76C183.57 34.4667 182.87 34.0333 182.283 33.46L183.243 31.72C183.87 32.2267 184.483 32.6 185.083 32.84C185.697 33.08 186.283 33.2 186.843 33.2C187.363 33.2 187.777 33.1067 188.083 32.92C188.403 32.7333 188.563 32.4533 188.563 32.08C188.563 31.8267 188.477 31.6333 188.303 31.5C188.13 31.3533 187.877 31.2267 187.543 31.12C187.223 31.0133 186.83 30.8933 186.363 30.76C185.59 30.5067 184.943 30.26 184.423 30.02C183.903 29.78 183.51 29.48 183.243 29.12C182.99 28.7467 182.863 28.2733 182.863 27.7C182.863 27.0067 183.037 26.4133 183.383 25.92C183.743 25.4133 184.237 25.02 184.863 24.74C185.503 24.46 186.25 24.32 187.103 24.32C187.85 24.32 188.557 24.44 189.223 24.68C189.89 24.9067 190.497 25.28 191.043 25.8L189.963 27.5C189.43 27.0867 188.923 26.7867 188.443 26.6C187.963 26.4 187.477 26.3 186.983 26.3C186.703 26.3 186.437 26.3333 186.183 26.4C185.943 26.4667 185.743 26.58 185.583 26.74C185.437 26.8867 185.363 27.1 185.363 27.38C185.363 27.6333 185.43 27.8333 185.563 27.98C185.71 28.1133 185.923 28.2333 186.203 28.34C186.497 28.4467 186.85 28.5667 187.263 28.7C188.103 28.94 188.81 29.1867 189.383 29.44C189.97 29.6933 190.41 30.0067 190.703 30.38C190.997 30.74 191.143 31.24 191.143 31.88C191.143 32.92 190.763 33.7333 190.003 34.32C189.243 34.9067 188.223 35.2 186.943 35.2ZM196.826 35.2C195.933 35.2 195.079 35.0533 194.266 34.76C193.453 34.4667 192.753 34.0333 192.166 33.46L193.126 31.72C193.753 32.2267 194.366 32.6 194.966 32.84C195.579 33.08 196.166 33.2 196.726 33.2C197.246 33.2 197.659 33.1067 197.966 32.92C198.286 32.7333 198.446 32.4533 198.446 32.08C198.446 31.8267 198.359 31.6333 198.186 31.5C198.013 31.3533 197.759 31.2267 197.426 31.12C197.106 31.0133 196.713 30.8933 196.246 30.76C195.473 30.5067 194.826 30.26 194.306 30.02C193.786 29.78 193.393 29.48 193.126 29.12C192.873 28.7467 192.746 28.2733 192.746 27.7C192.746 27.0067 192.919 26.4133 193.266 25.92C193.626 25.4133 194.119 25.02 194.746 24.74C195.386 24.46 196.133 24.32 196.986 24.32C197.733 24.32 198.439 24.44 199.106 24.68C199.773 24.9067 200.379 25.28 200.926 25.8L199.846 27.5C199.313 27.0867 198.806 26.7867 198.326 26.6C197.846 26.4 197.359 26.3 196.866 26.3C196.586 26.3 196.319 26.3333 196.066 26.4C195.826 26.4667 195.626 26.58 195.466 26.74C195.319 26.8867 195.246 27.1 195.246 27.38C195.246 27.6333 195.313 27.8333 195.446 27.98C195.593 28.1133 195.806 28.2333 196.086 28.34C196.379 28.4467 196.733 28.5667 197.146 28.7C197.986 28.94 198.693 29.1867 199.266 29.44C199.853 29.6933 200.293 30.0067 200.586 30.38C200.879 30.74 201.026 31.24 201.026 31.88C201.026 32.92 200.646 33.7333 199.886 34.32C199.126 34.9067 198.106 35.2 196.826 35.2ZM207.689 35.2C206.836 35.2 206.069 35.06 205.389 34.78C204.709 34.4867 204.129 34.0867 203.649 33.58C203.182 33.0733 202.822 32.4933 202.569 31.84C202.316 31.1867 202.189 30.5 202.189 29.78C202.189 29.0467 202.316 28.3533 202.569 27.7C202.822 27.0467 203.182 26.4667 203.649 25.96C204.129 25.4533 204.709 25.06 205.389 24.78C206.069 24.4867 206.836 24.34 207.689 24.34C208.542 24.34 209.302 24.4867 209.969 24.78C210.649 25.06 211.229 25.4533 211.709 25.96C212.189 26.4667 212.549 27.0467 212.789 27.7C213.042 28.3533 213.169 29.0467 213.169 29.78C213.169 30.5 213.042 31.1867 212.789 31.84C212.549 32.4933 212.189 33.0733 211.709 33.58C211.242 34.0867 210.669 34.4867 209.989 34.78C209.309 35.06 208.542 35.2 207.689 35.2ZM204.949 29.78C204.949 30.3933 205.069 30.94 205.309 31.42C205.549 31.8867 205.876 32.2533 206.289 32.52C206.702 32.7867 207.169 32.92 207.689 32.92C208.196 32.92 208.656 32.7867 209.069 32.52C209.482 32.24 209.809 31.8667 210.049 31.4C210.302 30.92 210.429 30.3733 210.429 29.76C210.429 29.16 210.302 28.62 210.049 28.14C209.809 27.66 209.482 27.2867 209.069 27.02C208.656 26.7533 208.196 26.62 207.689 26.62C207.169 26.62 206.702 26.76 206.289 27.04C205.876 27.3067 205.549 27.68 205.309 28.16C205.069 28.6267 204.949 29.1667 204.949 29.78ZM215.498 29.66V20.66H218.178V29.66H215.498ZM215.498 35V31.98H218.178V35H215.498Z" fill="white"/>
<path d="M256.75 34.375L255.312 28.9375L259.688 25.3125L254.062 25L252 19.75L249.938 25L244.25 25.3125L248.688 28.9375L247.25 34.375L252 31.3125L256.75 34.375ZM263.438 26.125C262.938 26.6667 262.688 27.2917 262.688 28C262.688 28.7083 262.938 29.3333 263.438 29.875C263.979 30.4167 264.604 30.6875 265.312 30.6875V36C265.312 36.7083 265.042 37.3333 264.5 37.875C264 38.4167 263.396 38.6875 262.688 38.6875H241.312C240.604 38.6875 239.979 38.4167 239.438 37.875C238.938 37.3333 238.688 36.7083 238.688 36V30.6875C239.438 30.6875 240.062 30.4375 240.562 29.9375C241.062 29.3958 241.312 28.75 241.312 28C241.312 27.2917 241.042 26.6667 240.5 26.125C240 25.5833 239.396 25.3125 238.688 25.3125V20C238.688 19.2917 238.938 18.6667 239.438 18.125C239.979 17.5833 240.604 17.3125 241.312 17.3125H262.688C263.396 17.3125 264 17.5833 264.5 18.125C265.042 18.6667 265.312 19.2917 265.312 20V25.3125C264.604 25.3125 263.979 25.5833 263.438 26.125Z" fill="white"/>
</g>
<defs>
<filter id="filter0_d_96_5757" x="0" y="0" width="316" height="60" filterUnits="userSpaceOnUse" color-interpolation-filters="sRGB">
<feFlood flood-opacity="0" result="BackgroundImageFix"/>
<feColorMatrix in="SourceAlpha" type="matrix" values="0 0 0 0 0 0 0 0 0 0 0 0 0 0 0 0 0 0 127 0" result="hardAlpha"/>
<feOffset dx="4" dy="4"/>
<feComposite in2="hardAlpha" operator="out"/>
<feColorMatrix type="matrix" values="0 0 0 0 0.266667 0 0 0 0 0.266667 0 0 0 0 0.266667 0 0 0 1 0"/>
<feBlend mode="normal" in2="BackgroundImageFix" result="effect1_dropShadow_96_5757"/>
<feBlend mode="normal" in="SourceGraphic" in2="effect1_dropShadow_96_5757" result="shape"/>
</filter>
</defs>
</svg>
